STARTFONT 2.1
FONT -Monotype-Century Gothic-Bold-I-Normal--18-180-72-72-P-94-iso8859-1
SIZE 18 72 72
FONTBOUNDINGBOX 23 23 -3 -4

STARTPROPERTIES 22
FOUNDRY "Monotype"
FAMILY_NAME "Century Gothic"
WEIGHT_NAME "Bold"
SLANT "I"
SETWIDTH_NAME "Normal"
ADD_STYLE_NAME ""
PIXEL_SIZE 18
POINT_SIZE 180
RESOLUTION_X 72
RESOLUTION_Y 72
SPACING "P"
AVERAGE_WIDTH 94
CHARSET_REGISTRY "iso8859"
CHARSET_ENCODING "1"
COPYRIGHT "Copyright (c) 1996 Monotype Typography Ltd."
CAP_HEIGHT 16
X_HEIGHT 12
WEIGHT 10
QUAD_WIDTH 13
DEFAULT_CHAR 32
FONT_DESCENT 4
FONT_ASCENT 19
ENDPROPERTIES

CHARS 191

STARTCHAR space
ENCODING 32
SWIDTH 280 0
DWIDTH 6 0
BBX 0 0 0 0
BITMAP
ENDCHAR

STARTCHAR exclam
ENCODING 33
SWIDTH 280 0
DWIDTH 5 0
BBX 5 14 0 0
BITMAP
38
30
30
70
70
70
70
60
60
60
00
E0
E0
E0
ENDCHAR

STARTCHAR quotedbl
ENCODING 34
SWIDTH 360 0
DWIDTH 7 0
BBX 6 5 1 9
BITMAP
EC
CC
CC
CC
C8
ENDCHAR

STARTCHAR numbersign
ENCODING 35
SWIDTH 600 0
DWIDTH 11 0
BBX 11 14 0 0
BITMAP
06C0
0CC0
0CC0
0D80
7FE0
7FE0
1900
1300
FFC0
FFC0
3600
6600
6600
6C00
ENDCHAR

STARTCHAR dollar
ENCODING 36
SWIDTH 560 0
DWIDTH 11 0
BBX 10 17 0 -2
BITMAP
0200
1F00
3FC0
3980
3000
3800
3C00
1F00
0780
0380
0180
6180
E380
7F00
3E00
0800
1800
ENDCHAR

STARTCHAR percent
ENCODING 37
SWIDTH 860 0
DWIDTH 16 0
BBX 15 14 1 0
BITMAP
3C06
7FFC
C7F8
C630
C660
7CC0
3980
0300
0638
0C7E
08C6
10C6
307C
E038
ENDCHAR

STARTCHAR ampersand
ENCODING 38
SWIDTH 680 0
DWIDTH 13 0
BBX 12 13 1 0
BITMAP
0F00
1F80
1980
1980
1D80
0F00
3E00
7F20
E760
E3E0
E7C0
FFE0
7CF0
ENDCHAR

STARTCHAR quoteright
ENCODING 39
SWIDTH 280 0
DWIDTH 5 0
BBX 3 6 2 8
BITMAP
60
E0
E0
40
C0
40
ENDCHAR

STARTCHAR parenleft
ENCODING 40
SWIDTH 380 0
DWIDTH 7 0
BBX 8 19 1 -4
BITMAP
0F
1E
1C
38
38
70
70
60
60
E0
E0
E0
E0
E0
E0
60
70
70
38
ENDCHAR

STARTCHAR parenright
ENCODING 41
SWIDTH 380 0
DWIDTH 7 0
BBX 8 19 -3 -4
BITMAP
1C
0E
0E
07
07
07
07
07
07
07
06
06
0E
0E
0C
1C
38
78
F0
ENDCHAR

STARTCHAR asterisk
ENCODING 42
SWIDTH 440 0
DWIDTH 8 0
BBX 8 7 1 7
BITMAP
1C
3A
EB
1C
FF
56
7A
ENDCHAR

STARTCHAR plus
ENCODING 43
SWIDTH 600 0
DWIDTH 11 0
BBX 9 10 1 2
BITMAP
0C00
0C00
0C00
1C00
FF80
FF80
1800
1800
1800
1800
ENDCHAR

STARTCHAR comma
ENCODING 44
SWIDTH 280 0
DWIDTH 5 0
BBX 3 5 0 -2
BITMAP
40
60
E0
C0
80
ENDCHAR

STARTCHAR minus
ENCODING 45
SWIDTH 600 0
DWIDTH 11 0
BBX 9 2 1 6
BITMAP
FF80
FF80
ENDCHAR

STARTCHAR period
ENCODING 46
SWIDTH 280 0
DWIDTH 5 0
BBX 3 3 0 0
BITMAP
E0
E0
E0
ENDCHAR

STARTCHAR slash
ENCODING 47
SWIDTH 460 0
DWIDTH 9 0
BBX 10 16 -1 -2
BITMAP
00C0
0180
0180
0300
0300
0600
0600
0C00
0C00
1800
1800
3000
3000
6000
6000
C000
ENDCHAR

STARTCHAR zero
ENCODING 48
SWIDTH 560 0
DWIDTH 11 0
BBX 9 14 1 0
BITMAP
1E00
3F00
7380
6180
E180
E180
C180
C180
C380
C380
C300
E700
7E00
3C00
ENDCHAR

STARTCHAR one
ENCODING 49
SWIDTH 560 0
DWIDTH 11 0
BBX 5 14 3 0
BITMAP
78
F8
38
30
30
30
70
70
70
70
60
60
60
60
ENDCHAR

STARTCHAR two
ENCODING 50
SWIDTH 560 0
DWIDTH 11 0
BBX 9 14 0 0
BITMAP
1F00
3F80
7B80
7180
0180
0380
0700
0700
0E00
1C00
3800
7000
FF80
FF00
ENDCHAR

STARTCHAR three
ENCODING 51
SWIDTH 560 0
DWIDTH 11 0
BBX 10 14 0 0
BITMAP
0F00
1F80
39C0
01C0
0180
0780
0F00
0780
0380
0180
E180
7380
7F00
3E00
ENDCHAR

STARTCHAR four
ENCODING 52
SWIDTH 560 0
DWIDTH 11 0
BBX 10 14 0 0
BITMAP
01C0
0380
0380
0780
0E80
1D80
3B80
3380
6380
FFC0
FFC0
0300
0300
0300
ENDCHAR

STARTCHAR five
ENCODING 53
SWIDTH 560 0
DWIDTH 11 0
BBX 10 14 1 0
BITMAP
1FC0
1F80
3800
3800
3000
7F00
7F00
7780
0380
0380
4380
E700
FF00
3C00
ENDCHAR

STARTCHAR six
ENCODING 54
SWIDTH 560 0
DWIDTH 11 0
BBX 9 14 1 0
BITMAP
0200
0700
0E00
1C00
3C00
3000
7F00
FF80
E380
C180
C180
E380
7F00
3E00
ENDCHAR

STARTCHAR seven
ENCODING 55
SWIDTH 560 0
DWIDTH 11 0
BBX 9 14 2 0
BITMAP
FF80
FF80
0700
0600
0E00
0C00
1C00
3800
3800
7000
7000
E000
C000
4000
ENDCHAR

STARTCHAR eight
ENCODING 56
SWIDTH 560 0
DWIDTH 11 0
BBX 10 14 0 0
BITMAP
1F00
3F80
39C0
31C0
3980
1E00
3F00
7380
6180
E180
E380
7380
7F00
3E00
ENDCHAR

STARTCHAR nine
ENCODING 57
SWIDTH 560 0
DWIDTH 11 0
BBX 9 14 1 0
BITMAP
3E00
7F00
E380
C180
C180
E380
7F80
3700
0E00
1E00
1C00
3800
7000
1000
ENDCHAR

STARTCHAR colon
ENCODING 58
SWIDTH 280 0
DWIDTH 5 0
BBX 4 10 0 0
BITMAP
70
70
70
00
00
00
00
E0
E0
E0
ENDCHAR

STARTCHAR semicolon
ENCODING 59
SWIDTH 280 0
DWIDTH 5 0
BBX 5 12 -1 -2
BITMAP
38
38
38
00
00
00
00
00
30
60
60
C0
ENDCHAR

STARTCHAR less
ENCODING 60
SWIDTH 600 0
DWIDTH 11 0
BBX 10 12 1 1
BITMAP
0040
00C0
07C0
1F00
7C00
D000
E000
F800
3E00
0F80
0300
0100
ENDCHAR

STARTCHAR equal
ENCODING 61
SWIDTH 600 0
DWIDTH 11 0
BBX 11 6 0 4
BITMAP
7FE0
7FC0
0000
0000
7FC0
FFC0
ENDCHAR

STARTCHAR greater
ENCODING 62
SWIDTH 600 0
DWIDTH 11 0
BBX 10 12 0 1
BITMAP
2000
7000
7800
1E00
0F80
03C0
01C0
0780
1E00
F800
E000
8000
ENDCHAR

STARTCHAR question
ENCODING 63
SWIDTH 560 0
DWIDTH 11 0
BBX 9 14 1 0
BITMAP
3F00
7F80
7380
E180
0380
0700
0E00
1C00
1800
1800
0000
3800
3800
3800
ENDCHAR

STARTCHAR at
ENCODING 64
SWIDTH 740 0
DWIDTH 14 0
BBX 14 14 0 0
BITMAP
07F0
1C38
300C
63B4
4FE4
DCE4
9864
98CC
9CC8
DFF0
CEC0
6038
38E0
1F80
ENDCHAR

STARTCHAR A
ENCODING 65
SWIDTH 740 0
DWIDTH 14 0
BBX 13 14 0 0
BITMAP
0180
03C0
03C0
07C0
0740
0EE0
0EE0
1C60
1C60
3FF0
7FF0
7030
E030
E038
ENDCHAR

STARTCHAR B
ENCODING 66
SWIDTH 580 0
DWIDTH 11 0
BBX 9 14 1 0
BITMAP
3E00
7F00
7380
7380
7380
7700
7E00
7F00
6780
E380
E380
C780
FF00
FE00
ENDCHAR

STARTCHAR C
ENCODING 67
SWIDTH 780 0
DWIDTH 15 0
BBX 14 14 1 0
BITMAP
07F0
1FFC
3C38
7808
7000
E000
E000
E000
E000
6000
7000
7C70
3FF8
0FE0
ENDCHAR

STARTCHAR D
ENCODING 68
SWIDTH 700 0
DWIDTH 13 0
BBX 12 14 1 0
BITMAP
3F00
3FC0
71E0
70E0
7070
7070
6070
6070
6070
6060
E0E0
E3C0
FFC0
FF00
ENDCHAR

STARTCHAR E
ENCODING 69
SWIDTH 520 0
DWIDTH 10 0
BBX 9 14 1 0
BITMAP
7F80
7F00
7000
6000
6000
6000
FF00
FF00
E000
E000
E000
C000
FE00
FE00
ENDCHAR

STARTCHAR F
ENCODING 70
SWIDTH 480 0
DWIDTH 9 0
BBX 8 14 1 0
BITMAP
7F
7F
70
60
60
7E
FE
E0
E0
E0
C0
C0
C0
C0
ENDCHAR

STARTCHAR G
ENCODING 71
SWIDTH 840 0
DWIDTH 16 0
BBX 14 14 1 0
BITMAP
07E0
1FF0
3C7C
7810
7000
E000
E000
E1FC
E1FC
601C
7038
3CF0
3FF0
0FC0
ENDCHAR

STARTCHAR H
ENCODING 72
SWIDTH 680 0
DWIDTH 13 0
BBX 11 14 1 0
BITMAP
7060
7060
70E0
70E0
60E0
7FE0
7FC0
E0C0
E0C0
E1C0
E1C0
C1C0
C1C0
C180
ENDCHAR

STARTCHAR I
ENCODING 73
SWIDTH 280 0
DWIDTH 5 0
BBX 4 14 1 0
BITMAP
70
70
70
60
60
60
60
E0
E0
E0
C0
C0
C0
C0
ENDCHAR

STARTCHAR J
ENCODING 74
SWIDTH 480 0
DWIDTH 9 0
BBX 9 14 0 0
BITMAP
0380
0300
0300
0700
0700
0700
0700
0700
0600
0600
4600
EE00
FE00
7C00
ENDCHAR

STARTCHAR K
ENCODING 75
SWIDTH 620 0
DWIDTH 12 0
BBX 11 14 1 0
BITMAP
70E0
71C0
7380
7700
7600
7C00
7800
7C00
EC00
EE00
E700
E700
C380
C1C0
ENDCHAR

STARTCHAR L
ENCODING 76
SWIDTH 440 0
DWIDTH 8 0
BBX 7 14 1 0
BITMAP
70
70
70
70
70
60
60
60
E0
E0
E0
E0
FE
FE
ENDCHAR

STARTCHAR M
ENCODING 77
SWIDTH 900 0
DWIDTH 17 0
BBX 15 14 0 0
BITMAP
1C06
1C0E
1C0E
1E1E
3E1E
3A3E
3636
3776
7766
7366
63C6
63C6
E386
E186
ENDCHAR

STARTCHAR N
ENCODING 78
SWIDTH 740 0
DWIDTH 14 0
BBX 12 14 1 0
BITMAP
7030
7030
7830
7870
6C70
6E70
6E70
6760
E360
E3E0
E1E0
C1E0
C0E0
C0E0
ENDCHAR

STARTCHAR O
ENCODING 79
SWIDTH 840 0
DWIDTH 16 0
BBX 15 14 0 0
BITMAP
07E0
1FF8
3C3C
781C
700E
600E
E00E
E00E
E00C
E01C
703C
78F8
3FF0
0FC0
ENDCHAR

STARTCHAR P
ENCODING 80
SWIDTH 560 0
DWIDTH 11 0
BBX 10 14 0 0
BITMAP
3F00
3F80
33C0
31C0
71C0
7380
7F80
7F00
6000
6000
6000
E000
E000
E000
ENDCHAR

STARTCHAR Q
ENCODING 81
SWIDTH 840 0
DWIDTH 16 0
BBX 15 14 0 0
BITMAP
07E0
1FF8
3C3C
381C
700E
600E
E00E
E00E
E00C
E1EC
707C
78F8
3FF8
0FDE
ENDCHAR

STARTCHAR R
ENCODING 82
SWIDTH 580 0
DWIDTH 11 0
BBX 10 14 1 0
BITMAP
3F00
3F80
31C0
31C0
71C0
7F80
7D00
7600
6E00
6700
6700
E300
E380
E180
ENDCHAR

STARTCHAR S
ENCODING 83
SWIDTH 520 0
DWIDTH 10 0
BBX 10 14 0 0
BITMAP
0F00
1FC0
3980
3880
3800
1C00
0E00
0700
0700
0380
2380
F380
7F00
3E00
ENDCHAR

STARTCHAR T
ENCODING 84
SWIDTH 420 0
DWIDTH 8 0
BBX 9 14 0 0
BITMAP
7F80
FF80
1C00
1C00
1C00
1800
1800
1800
3800
3800
3800
3800
3800
3000
ENDCHAR

STARTCHAR U
ENCODING 85
SWIDTH 640 0
DWIDTH 12 0
BBX 11 14 1 0
BITMAP
70E0
70E0
70C0
70C0
60C0
61C0
61C0
61C0
E1C0
E180
E180
F380
7F00
3E00
ENDCHAR

STARTCHAR V
ENCODING 86
SWIDTH 700 0
DWIDTH 13 0
BBX 13 14 1 0
BITMAP
E038
E030
6070
60E0
70E0
71C0
31C0
3380
3B00
3B00
1E00
1E00
1C00
1C00
ENDCHAR

STARTCHAR W
ENCODING 87
SWIDTH 900 0
DWIDTH 17 0
BBX 17 14 1 0
BITMAP
E1C380
E1C300
E3C700
E3C600
67C600
674E00
6EEC00
6EFC00
6C6C00
7C7800
787800
787800
707000
703000
ENDCHAR

STARTCHAR X
ENCODING 88
SWIDTH 680 0
DWIDTH 13 0
BBX 13 14 0 0
BITMAP
3838
1C70
1CE0
0CE0
0FC0
0780
0700
0700
0F80
1D80
39C0
38C0
70E0
E0E0
ENDCHAR

STARTCHAR Y
ENCODING 89
SWIDTH 620 0
DWIDTH 12 0
BBX 11 14 1 0
BITMAP
C0E0
E1C0
E1C0
6380
7700
3600
3E00
3C00
1800
1800
3800
3800
3800
3800
ENDCHAR

STARTCHAR Z
ENCODING 90
SWIDTH 500 0
DWIDTH 10 0
BBX 9 14 0 0
BITMAP
3F80
7B80
0700
0700
0600
0E00
0C00
1C00
1800
3800
3800
7000
7F00
FF00
ENDCHAR

STARTCHAR bracketleft
ENCODING 91
SWIDTH 320 0
DWIDTH 6 0
BBX 7 18 0 -4
BITMAP
1E
1E
18
38
38
38
38
30
30
30
70
70
70
70
70
60
78
F8
ENDCHAR

STARTCHAR backslash
ENCODING 92
SWIDTH 640 0
DWIDTH 12 0
BBX 5 16 3 -2
BITMAP
C0
C0
C0
40
60
60
60
20
30
30
30
10
18
18
18
18
ENDCHAR

STARTCHAR bracketright
ENCODING 93
SWIDTH 320 0
DWIDTH 6 0
BBX 6 18 -1 -4
BITMAP
3C
3C
1C
1C
1C
1C
1C
18
18
18
38
38
38
38
30
30
F0
F0
ENDCHAR

STARTCHAR asciicircum
ENCODING 94
SWIDTH 600 0
DWIDTH 11 0
BBX 10 11 0 3
BITMAP
0700
0700
0F00
0F00
1D00
1B80
3980
3180
7180
6180
E1C0
ENDCHAR

STARTCHAR underscore
ENCODING 95
SWIDTH 500 0
DWIDTH 10 0
BBX 10 1 0 -2
BITMAP
FFC0
ENDCHAR

STARTCHAR quoteleft
ENCODING 96
SWIDTH 280 0
DWIDTH 5 0
BBX 3 6 2 8
BITMAP
20
60
40
E0
E0
C0
ENDCHAR

STARTCHAR a
ENCODING 97
SWIDTH 660 0
DWIDTH 13 0
BBX 11 10 1 0
BITMAP
1EE0
7FE0
71E0
E0C0
C0C0
C0C0
E1C0
E3C0
7FC0
3DC0
ENDCHAR

STARTCHAR b
ENCODING 98
SWIDTH 660 0
DWIDTH 13 0
BBX 11 14 0 0
BITMAP
3000
3000
3000
3000
7780
7FC0
78E0
7060
6060
6060
60E0
F1C0
FF80
EF00
ENDCHAR

STARTCHAR c
ENCODING 99
SWIDTH 640 0
DWIDTH 12 0
BBX 10 10 1 0
BITMAP
1F80
3FC0
71C0
E000
C000
C000
E000
F1C0
7F80
3F00
ENDCHAR

STARTCHAR d
ENCODING 100
SWIDTH 660 0
DWIDTH 13 0
BBX 11 14 1 0
BITMAP
0060
0060
0060
00E0
1EE0
7FE0
71E0
E0C0
C0C0
C0C0
E1C0
E3C0
7FC0
3DC0
ENDCHAR

STARTCHAR e
ENCODING 101
SWIDTH 640 0
DWIDTH 12 0
BBX 11 10 1 0
BITMAP
1F00
3FC0
71C0
E0E0
FFE0
DFE0
E000
E100
7FC0
3F00
ENDCHAR

STARTCHAR f
ENCODING 102
SWIDTH 280 0
DWIDTH 5 0
BBX 6 14 0 0
BITMAP
1C
3C
30
30
FC
F8
70
70
60
60
60
60
E0
E0
ENDCHAR

STARTCHAR g
ENCODING 103
SWIDTH 660 0
DWIDTH 13 0
BBX 11 14 1 -4
BITMAP
1EE0
3FE0
71E0
E0C0
C0C0
C0C0
E1C0
E3C0
7FC0
3DC0
0180
E380
FF00
7E00
ENDCHAR

STARTCHAR h
ENCODING 104
SWIDTH 600 0
DWIDTH 11 0
BBX 10 14 0 0
BITMAP
3800
3000
3000
3000
7780
7FC0
79C0
71C0
61C0
6180
6180
E180
E180
E380
ENDCHAR

STARTCHAR i
ENCODING 105
SWIDTH 240 0
DWIDTH 5 0
BBX 4 14 1 0
BITMAP
70
70
70
00
60
60
60
60
E0
E0
E0
C0
C0
C0
ENDCHAR

STARTCHAR j
ENCODING 106
SWIDTH 260 0
DWIDTH 5 0
BBX 7 18 -2 -4
BITMAP
0E
0E
0E
00
0C
0C
0C
1C
1C
1C
1C
18
18
18
38
38
70
F0
ENDCHAR

STARTCHAR k
ENCODING 107
SWIDTH 580 0
DWIDTH 11 0
BBX 11 14 0 0
BITMAP
3800
3800
3000
3000
31E0
33C0
7700
7600
7C00
7600
6700
6380
61C0
E1E0
ENDCHAR

STARTCHAR l
ENCODING 108
SWIDTH 240 0
DWIDTH 5 0
BBX 4 14 0 0
BITMAP
30
30
30
30
70
70
70
60
60
60
60
E0
E0
E0
ENDCHAR

STARTCHAR m
ENCODING 109
SWIDTH 940 0
DWIDTH 18 0
BBX 16 10 1 0
BITMAP
7F1E
7FBF
71E7
61C7
E187
E186
E186
E386
C386
C38E
ENDCHAR

STARTCHAR n
ENCODING 110
SWIDTH 600 0
DWIDTH 11 0
BBX 10 10 0 0
BITMAP
7780
7FC0
79C0
71C0
61C0
6180
6180
E180
E180
E380
ENDCHAR

STARTCHAR o
ENCODING 111
SWIDTH 640 0
DWIDTH 12 0
BBX 10 10 1 0
BITMAP
1F00
7F80
71C0
E0C0
C0C0
C0C0
C1C0
E380
7F80
3E00
ENDCHAR

STARTCHAR p
ENCODING 112
SWIDTH 660 0
DWIDTH 13 0
BBX 11 14 0 -4
BITMAP
7780
7FC0
78E0
7060
6060
6060
60E0
F1C0
FFC0
EF00
E000
C000
C000
C000
ENDCHAR

STARTCHAR q
ENCODING 113
SWIDTH 660 0
DWIDTH 13 0
BBX 11 14 1 -4
BITMAP
1EE0
7FE0
71E0
E0C0
C0C0
C0C0
E1C0
E3C0
7FC0
3DC0
01C0
0180
0180
0180
ENDCHAR

STARTCHAR r
ENCODING 114
SWIDTH 320 0
DWIDTH 6 0
BBX 6 10 0 0
BITMAP
6C
7C
70
60
60
E0
E0
E0
C0
C0
ENDCHAR

STARTCHAR s
ENCODING 115
SWIDTH 440 0
DWIDTH 8 0
BBX 8 10 0 0
BITMAP
3C
7F
66
70
3C
1E
06
CE
FE
7C
ENDCHAR

STARTCHAR t
ENCODING 116
SWIDTH 300 0
DWIDTH 6 0
BBX 6 14 0 0
BITMAP
38
38
30
30
FC
BC
70
70
70
70
60
60
60
E0
ENDCHAR

STARTCHAR u
ENCODING 117
SWIDTH 600 0
DWIDTH 11 0
BBX 9 10 1 0
BITMAP
6180
E180
E380
E380
C380
C380
C300
E700
FE00
7C00
ENDCHAR

STARTCHAR v
ENCODING 118
SWIDTH 560 0
DWIDTH 11 0
BBX 9 10 1 0
BITMAP
C180
C380
E700
E600
6E00
7C00
7C00
3800
3000
3000
ENDCHAR

STARTCHAR w
ENCODING 119
SWIDTH 800 0
DWIDTH 15 0
BBX 14 10 1 0
BITMAP
C21C
C31C
E738
EF30
6F70
7DE0
79E0
79C0
3180
2180
ENDCHAR

STARTCHAR x
ENCODING 120
SWIDTH 560 0
DWIDTH 11 0
BBX 10 10 0 0
BITMAP
61C0
7380
3F00
1F00
0C00
1E00
3E00
7700
7380
E1C0
ENDCHAR

STARTCHAR y
ENCODING 121
SWIDTH 580 0
DWIDTH 11 0
BBX 11 14 0 -4
BITMAP
E0E0
60C0
71C0
7380
3300
3B00
3E00
1E00
1C00
1C00
3800
3000
7000
E000
ENDCHAR

STARTCHAR z
ENCODING 122
SWIDTH 460 0
DWIDTH 9 0
BBX 10 10 -1 0
BITMAP
3FC0
3B80
0700
0600
0E00
1C00
1800
3800
7F80
FF80
ENDCHAR

STARTCHAR braceleft
ENCODING 123
SWIDTH 340 0
DWIDTH 6 0
BBX 8 18 0 -4
BITMAP
0F
0F
1C
18
18
18
38
30
E0
F0
70
30
30
30
30
38
3C
1C
ENDCHAR

STARTCHAR bar
ENCODING 124
SWIDTH 600 0
DWIDTH 11 0
BBX 4 18 3 -4
BITMAP
10
10
30
30
30
20
20
20
20
60
60
60
40
40
40
40
C0
C0
ENDCHAR

STARTCHAR braceright
ENCODING 125
SWIDTH 340 0
DWIDTH 6 0
BBX 8 18 -2 -4
BITMAP
3C
3C
1C
0C
0C
0C
0C
0E
07
0F
0C
1C
18
18
18
38
F0
E0
ENDCHAR

STARTCHAR asciitilde
ENCODING 126
SWIDTH 600 0
DWIDTH 11 0
BBX 10 5 0 4
BITMAP
3800
7E40
7FC0
8FC0
0380
ENDCHAR

STARTCHAR space
ENCODING 160
SWIDTH 280 0
DWIDTH 5 0
BBX 0 0 0 0
BITMAP
ENDCHAR

STARTCHAR exclamdown
ENCODING 161
SWIDTH 280 0
DWIDTH 5 0
BBX 5 15 0 -4
BITMAP
38
38
38
00
30
30
30
70
70
70
70
70
60
60
E0
ENDCHAR

STARTCHAR cent
ENCODING 162
SWIDTH 560 0
DWIDTH 11 0
BBX 11 15 0 -2
BITMAP
0060
0060
07C0
1FC0
3FE0
3960
7300
7600
7400
7CC0
39C0
3F80
7F00
C000
C000
ENDCHAR

STARTCHAR sterling
ENCODING 163
SWIDTH 560 0
DWIDTH 11 0
BBX 11 14 0 0
BITMAP
07C0
0FE0
1CE0
1CE0
1C00
1C00
7F00
7F00
3800
3800
39C0
71C0
FF80
FF00
ENDCHAR

STARTCHAR currency
ENCODING 164
SWIDTH 600 0
DWIDTH 11 0
BBX 10 10 1 2
BITMAP
5E80
FFC0
6180
C0C0
C0C0
C0C0
C0C0
6180
FFC0
5E80
ENDCHAR

STARTCHAR yen
ENCODING 165
SWIDTH 560 0
DWIDTH 11 0
BBX 11 14 0 0
BITMAP
60E0
71C0
71C0
3380
3300
3B00
1E00
7F80
3D80
FF00
FF00
1800
1800
1800
ENDCHAR

STARTCHAR brokenbar
ENCODING 166
SWIDTH 600 0
DWIDTH 11 0
BBX 1 18 5 -4
BITMAP
80
80
80
80
80
80
00
00
00
00
00
00
80
80
80
80
80
80
ENDCHAR

STARTCHAR section
ENCODING 167
SWIDTH 560 0
DWIDTH 11 0
BBX 10 18 1 -4
BITMAP
0700
0F80
1DC0
18C0
1C00
1E00
3F00
7780
6380
7180
7B80
3F00
1E00
0E00
C600
EE00
7C00
3800
ENDCHAR

STARTCHAR dieresis
ENCODING 168
SWIDTH 500 0
DWIDTH 10 0
BBX 7 3 2 11
BITMAP
66
EE
44
ENDCHAR

STARTCHAR copyright
ENCODING 169
SWIDTH 740 0
DWIDTH 14 0
BBX 13 14 1 0
BITMAP
0F80
3FE0
7070
67B0
CFD8
DED8
DC18
DC18
DED8
CFD8
67B0
7070
3FE0
0F80
ENDCHAR

STARTCHAR ordfeminine
ENCODING 170
SWIDTH 360 0
DWIDTH 7 0
BBX 6 7 1 7
BITMAP
3C
7C
CC
CC
CC
F8
68
ENDCHAR

STARTCHAR guillemotleft
ENCODING 171
SWIDTH 460 0
DWIDTH 9 0
BBX 9 10 0 0
BITMAP
1980
1980
3B80
3300
6600
EE00
6600
7700
3300
3300
ENDCHAR

STARTCHAR logicalnot
ENCODING 172
SWIDTH 600 0
DWIDTH 11 0
BBX 9 6 1 4
BITMAP
FF80
FF80
FF80
0380
0380
0380
ENDCHAR

STARTCHAR hyphen
ENCODING 173
SWIDTH 420 0
DWIDTH 8 0
BBX 5 2 1 4
BITMAP
F8
F8
ENDCHAR

STARTCHAR registered
ENCODING 174
SWIDTH 740 0
DWIDTH 14 0
BBX 13 14 1 0
BITMAP
0F80
3FE0
7070
6FB0
CFD8
CCD8
CCD8
CF98
CFD8
CCD8
6CF0
7070
3FE0
0F80
ENDCHAR

STARTCHAR macron
ENCODING 175
SWIDTH 420 0
DWIDTH 8 0
BBX 6 2 3 12
BITMAP
FC
F8
ENDCHAR

STARTCHAR degree
ENCODING 176
SWIDTH 400 0
DWIDTH 8 0
BBX 6 6 1 8
BITMAP
38
44
84
84
C8
70
ENDCHAR

STARTCHAR plusminus
ENCODING 177
SWIDTH 600 0
DWIDTH 11 0
BBX 10 14 1 0
BITMAP
0C00
0C00
0C00
0C00
FFC0
FFC0
0C00
0C00
0C00
0C00
0000
0000
FFC0
FFC0
ENDCHAR

STARTCHAR twosuperior
ENCODING 178
SWIDTH 336 0
DWIDTH 6 0
BBX 6 7 0 7
BITMAP
38
6C
6C
18
30
60
F8
ENDCHAR

STARTCHAR threesuperior
ENCODING 179
SWIDTH 336 0
DWIDTH 6 0
BBX 6 7 0 7
BITMAP
38
6C
0C
38
18
D8
70
ENDCHAR

STARTCHAR acute
ENCODING 180
SWIDTH 420 0
DWIDTH 8 0
BBX 5 3 2 13
BITMAP
78
70
E0
ENDCHAR

STARTCHAR mu
ENCODING 181
SWIDTH 576 0
DWIDTH 11 0
BBX 12 13 -1 -3
BITMAP
3870
3870
3870
3870
70E0
70E0
79E0
7FE0
7FE0
EEE0
E000
E000
E000
ENDCHAR

STARTCHAR paragraph
ENCODING 182
SWIDTH 600 0
DWIDTH 11 0
BBX 9 17 1 -3
BITMAP
3F80
7900
F900
F900
F900
F900
7900
1900
0900
0900
0900
0900
0900
0900
0900
0900
0900
ENDCHAR

STARTCHAR periodcentered
ENCODING 183
SWIDTH 280 0
DWIDTH 5 0
BBX 3 3 1 5
BITMAP
E0
E0
E0
ENDCHAR

STARTCHAR cedilla
ENCODING 184
SWIDTH 340 0
DWIDTH 6 0
BBX 5 4 0 -3
BITMAP
30
38
18
F0
ENDCHAR

STARTCHAR onesuperior
ENCODING 185
SWIDTH 336 0
DWIDTH 6 0
BBX 3 7 2 7
BITMAP
E0
60
60
60
C0
C0
C0
ENDCHAR

STARTCHAR ordmasculine
ENCODING 186
SWIDTH 360 0
DWIDTH 7 0
BBX 6 7 1 7
BITMAP
30
7C
CC
CC
CC
F8
30
ENDCHAR

STARTCHAR guillemotright
ENCODING 187
SWIDTH 460 0
DWIDTH 9 0
BBX 9 10 0 0
BITMAP
6600
6600
7700
3300
3B80
3300
6600
EE00
CC00
CC00
ENDCHAR

STARTCHAR onequarter
ENCODING 188
SWIDTH 840 0
DWIDTH 16 0
BBX 14 14 2 0
BITMAP
E030
6030
6060
60C0
C180
C180
C300
061C
0C3C
0C6C
18D8
3198
61FC
6018
ENDCHAR

STARTCHAR onehalf
ENCODING 189
SWIDTH 840 0
DWIDTH 16 0
BBX 13 14 2 0
BITMAP
E060
6060
60C0
6180
C300
C300
C600
0C70
18D8
18D8
3030
6060
C0C0
C1F0
ENDCHAR

STARTCHAR threequarters
ENCODING 190
SWIDTH 840 0
DWIDTH 16 0
BBX 14 14 1 0
BITMAP
3818
6C18
0C30
3860
18C0
D8C0
7180
031C
063C
066C
0CD8
1998
31FC
3018
ENDCHAR

STARTCHAR questiondown
ENCODING 191
SWIDTH 560 0
DWIDTH 11 0
BBX 10 14 0 -4
BITMAP
0E00
0E00
0E00
0000
0C00
0C00
1C00
3800
7000
E1C0
C380
E700
FF00
7E00
ENDCHAR

STARTCHAR Agrave
ENCODING 192
SWIDTH 740 0
DWIDTH 14 0
BBX 13 18 0 0
BITMAP
03C0
01C0
00E0
0000
0180
03C0
03C0
07C0
0740
0EE0
0EE0
1C60
1C60
3FF0
7FF0
7030
E030
E038
ENDCHAR

STARTCHAR Aacute
ENCODING 193
SWIDTH 740 0
DWIDTH 14 0
BBX 13 18 0 0
BITMAP
01E0
01C0
0380
0000
0180
03C0
03C0
07C0
0740
0EE0
0EE0
1C60
1C60
3FF0
7FF0
7030
E030
E038
ENDCHAR

STARTCHAR Acircumflex
ENCODING 194
SWIDTH 740 0
DWIDTH 14 0
BBX 13 18 0 0
BITMAP
00E0
01F0
03B8
0000
0180
03C0
03C0
07C0
0740
0EE0
0EE0
1C60
1C60
3FF0
7FF0
7030
E030
E038
ENDCHAR

STARTCHAR Atilde
ENCODING 195
SWIDTH 740 0
DWIDTH 14 0
BBX 13 18 0 0
BITMAP
0380
07F0
00E0
0000
0180
03C0
03C0
07C0
0740
0EE0
0EE0
1C60
1C60
3FF0
7FF0
7030
E030
E038
ENDCHAR

STARTCHAR Adieresis
ENCODING 196
SWIDTH 740 0
DWIDTH 14 0
BBX 13 18 0 0
BITMAP
0330
0770
0220
0000
0180
03C0
03C0
07C0
0740
0EE0
0EE0
1C60
1C60
3FF0
7FF0
7030
E030
E038
ENDCHAR

STARTCHAR Aring
ENCODING 197
SWIDTH 740 0
DWIDTH 14 0
BBX 13 19 0 0
BITMAP
03C0
0240
0240
01C0
0000
0180
03C0
03C0
07C0
0740
0EE0
0EE0
1C60
1C60
3FF0
7FF0
7030
E030
E038
ENDCHAR

STARTCHAR AE
ENCODING 198
SWIDTH 900 0
DWIDTH 17 0
BBX 17 14 0 0
BITMAP
01FF80
03BF00
036000
076000
066000
0EE000
0CFF00
1CFF00
18E000
3FC000
3FC000
70C000
60FE00
E1FE00
ENDCHAR

STARTCHAR Ccedilla
ENCODING 199
SWIDTH 780 0
DWIDTH 15 0
BBX 14 17 0 -3
BITMAP
07F0
1FFC
3E38
7808
7000
6000
E000
E000
E000
6000
7000
3C30
1FF8
07E0
0380
0180
0F00
ENDCHAR

STARTCHAR Egrave
ENCODING 200
SWIDTH 520 0
DWIDTH 10 0
BBX 9 18 1 0
BITMAP
3C00
1C00
0E00
0000
7F80
7F00
7000
6000
6000
6000
FF00
FF00
E000
E000
E000
C000
FE00
FE00
ENDCHAR

STARTCHAR Eacute
ENCODING 201
SWIDTH 520 0
DWIDTH 10 0
BBX 9 18 1 0
BITMAP
0F00
0E00
1C00
0000
7F80
7F00
7000
6000
6000
6000
FF00
FF00
E000
E000
E000
C000
FE00
FE00
ENDCHAR

STARTCHAR Ecircumflex
ENCODING 202
SWIDTH 520 0
DWIDTH 10 0
BBX 9 18 1 0
BITMAP
0E00
1F00
3B80
0000
7F80
7F00
7000
6000
6000
6000
FF00
FF00
E000
E000
E000
C000
FE00
FE00
ENDCHAR

STARTCHAR Edieresis
ENCODING 203
SWIDTH 520 0
DWIDTH 10 0
BBX 9 18 1 0
BITMAP
1980
3B80
1100
0000
7F80
7F00
7000
6000
6000
6000
FF00
FF00
E000
E000
E000
C000
FE00
FE00
ENDCHAR

STARTCHAR Igrave
ENCODING 204
SWIDTH 280 0
DWIDTH 5 0
BBX 5 18 1 0
BITMAP
F0
70
38
00
70
70
70
60
60
60
60
E0
E0
E0
C0
C0
C0
C0
ENDCHAR

STARTCHAR Iacute
ENCODING 205
SWIDTH 280 0
DWIDTH 5 0
BBX 6 18 1 0
BITMAP
3C
38
70
00
70
70
70
60
60
60
60
E0
E0
E0
C0
C0
C0
C0
ENDCHAR

STARTCHAR Icircumflex
ENCODING 206
SWIDTH 280 0
DWIDTH 5 0
BBX 7 18 1 0
BITMAP
38
7C
EE
00
70
70
70
60
60
60
60
E0
E0
E0
C0
C0
C0
C0
ENDCHAR

STARTCHAR Idieresis
ENCODING 207
SWIDTH 280 0
DWIDTH 5 0
BBX 7 18 0 0
BITMAP
66
EE
44
00
38
38
38
30
30
30
30
70
70
70
60
60
60
60
ENDCHAR

STARTCHAR Eth
ENCODING 208
SWIDTH 742 0
DWIDTH 14 0
BBX 12 14 1 0
BITMAP
3F00
3FC0
71E0
70E0
7070
7070
FE70
FC70
6070
6060
E0E0
E3C0
FFC0
FF00
ENDCHAR

STARTCHAR Ntilde
ENCODING 209
SWIDTH 740 0
DWIDTH 14 0
BBX 12 18 1 0
BITMAP
0F00
1FE0
01C0
0000
7030
7030
7830
7870
6C70
6E70
6E70
6760
E360
E3E0
E1E0
C1E0
C0E0
C0E0
ENDCHAR

STARTCHAR Ograve
ENCODING 210
SWIDTH 840 0
DWIDTH 16 0
BBX 15 18 0 0
BITMAP
03C0
01C0
00E0
0000
07E0
1FF8
3C3C
781C
700E
600E
E00E
E00E
E00C
E01C
703C
78F8
3FF0
0FC0
ENDCHAR

STARTCHAR Oacute
ENCODING 211
SWIDTH 840 0
DWIDTH 16 0
BBX 15 18 0 0
BITMAP
00F0
00E0
01C0
0000
07E0
1FF8
3C3C
781C
700E
600E
E00E
E00E
E00C
E01C
703C
78F8
3FF0
0FC0
ENDCHAR

STARTCHAR Ocircumflex
ENCODING 212
SWIDTH 840 0
DWIDTH 16 0
BBX 15 18 0 0
BITMAP
00E0
01F0
03B8
0000
07E0
1FF8
3C3C
781C
700E
600E
E00E
E00E
E00C
E01C
703C
78F8
3FF0
0FC0
ENDCHAR

STARTCHAR Otilde
ENCODING 213
SWIDTH 840 0
DWIDTH 16 0
BBX 15 18 0 0
BITMAP
03C0
03F8
0070
0000
07E0
1FF8
3C3C
781C
700E
600E
E00E
E00E
E00C
E01C
703C
78F8
3FF0
0FC0
ENDCHAR

STARTCHAR Odieresis
ENCODING 214
SWIDTH 840 0
DWIDTH 16 0
BBX 15 18 0 0
BITMAP
0198
03B8
0110
0000
07E0
1FF8
3C3C
781C
700E
600E
E00E
E00E
E00C
E01C
703C
78F8
3FF0
0FC0
ENDCHAR

STARTCHAR multiply
ENCODING 215
SWIDTH 600 0
DWIDTH 11 0
BBX 9 8 1 3
BITMAP
6180
7380
3700
3E00
1C00
3E00
E700
C300
ENDCHAR

STARTCHAR Oslash
ENCODING 216
SWIDTH 840 0
DWIDTH 16 0
BBX 15 16 0 -1
BITMAP
0004
07EC
1FFC
3C3C
383C
706E
60CE
E18E
E30E
E60C
EC1C
7C3C
78F8
3FF0
6FC0
2000
ENDCHAR

STARTCHAR Ugrave
ENCODING 217
SWIDTH 640 0
DWIDTH 12 0
BBX 11 18 1 0
BITMAP
0F00
0700
0380
0000
70E0
70E0
70C0
70C0
60C0
61C0
61C0
61C0
E1C0
E180
E180
F380
7F00
3E00
ENDCHAR

STARTCHAR Uacute
ENCODING 218
SWIDTH 640 0
DWIDTH 12 0
BBX 11 18 1 0
BITMAP
03C0
0380
0700
0000
70E0
70E0
70C0
70C0
60C0
61C0
61C0
61C0
E1C0
E180
E180
F380
7F00
3E00
ENDCHAR

STARTCHAR Ucircumflex
ENCODING 219
SWIDTH 640 0
DWIDTH 12 0
BBX 11 18 1 0
BITMAP
0700
0F80
1DC0
0000
70E0
70E0
70C0
70C0
60C0
61C0
61C0
61C0
E1C0
E180
E180
F380
7F00
3E00
ENDCHAR

STARTCHAR Udieresis
ENCODING 220
SWIDTH 640 0
DWIDTH 12 0
BBX 11 18 1 0
BITMAP
0CC0
1DC0
0880
0000
70E0
70E0
70C0
70C0
60C0
61C0
61C0
61C0
E1C0
E180
E180
F380
7F00
3E00
ENDCHAR

STARTCHAR Yacute
ENCODING 221
SWIDTH 620 0
DWIDTH 12 0
BBX 11 18 1 0
BITMAP
0780
0700
0E00
0000
E0E0
E0E0
71C0
71C0
3B80
3B00
1F00
0E00
1C00
1C00
1C00
3800
3800
3800
ENDCHAR

STARTCHAR Thorn
ENCODING 222
SWIDTH 560 0
DWIDTH 11 0
BBX 9 14 1 0
BITMAP
7000
7000
7000
7E00
7F00
6780
6380
E380
E700
FF00
FE00
C000
C000
C000
ENDCHAR

STARTCHAR germandbls
ENCODING 223
SWIDTH 600 0
DWIDTH 11 0
BBX 10 14 1 0
BITMAP
0F80
1FC0
39C0
30C0
71C0
7780
7700
7380
E1C0
E1C0
E1C0
EBC0
EF80
EF00
ENDCHAR

STARTCHAR agrave
ENCODING 224
SWIDTH 660 0
DWIDTH 13 0
BBX 11 15 1 0
BITMAP
1E00
0E00
0700
0000
0000
1EE0
7FE0
71E0
E0C0
C0C0
C0C0
E1C0
E3C0
7FC0
3DC0
ENDCHAR

STARTCHAR aacute
ENCODING 225
SWIDTH 660 0
DWIDTH 13 0
BBX 11 15 1 0
BITMAP
03C0
0380
0700
0000
0000
1EE0
7FE0
71E0
E0C0
C0C0
C0C0
E1C0
E3C0
7FC0
3DC0
ENDCHAR

STARTCHAR acircumflex
ENCODING 226
SWIDTH 660 0
DWIDTH 13 0
BBX 11 14 1 0
BITMAP
0700
0F80
39C0
0000
1EE0
7FE0
71E0
E0C0
C0C0
C0C0
E1C0
E3C0
7FC0
3DC0
ENDCHAR

STARTCHAR atilde
ENCODING 227
SWIDTH 660 0
DWIDTH 13 0
BBX 11 15 1 0
BITMAP
1E00
1FC0
0380
0000
0000
1EE0
7FE0
71E0
E0C0
C0C0
C0C0
E1C0
E3C0
7FC0
3DC0
ENDCHAR

STARTCHAR adieresis
ENCODING 228
SWIDTH 660 0
DWIDTH 13 0
BBX 11 14 1 0
BITMAP
0CC0
1DC0
0880
0000
1EE0
7FE0
71E0
E0C0
C0C0
C0C0
E1C0
E3C0
7FC0
3DC0
ENDCHAR

STARTCHAR aring
ENCODING 229
SWIDTH 660 0
DWIDTH 13 0
BBX 11 16 1 0
BITMAP
0F00
0900
0900
0700
0000
0000
1EE0
7FE0
71E0
E0C0
C0C0
C0C0
E1C0
E3C0
7FC0
3DC0
ENDCHAR

STARTCHAR ae
ENCODING 230
SWIDTH 1080 0
DWIDTH 21 0
BBX 19 10 1 0
BITMAP
1EEF80
7F7FC0
71F1C0
E0E0E0
C0FFE0
C0FFE0
C1C000
E3E100
7FFFC0
3DBF00
ENDCHAR

STARTCHAR ccedilla
ENCODING 231
SWIDTH 640 0
DWIDTH 12 0
BBX 10 13 1 -3
BITMAP
1F80
3FC0
71C0
E000
C000
C000
C000
E1C0
7F80
3F00
0E00
0600
3C00
ENDCHAR

STARTCHAR egrave
ENCODING 232
SWIDTH 640 0
DWIDTH 12 0
BBX 11 15 1 0
BITMAP
1E00
0E00
0700
0000
0000
1F00
3FC0
71C0
E0E0
FFE0
DFE0
E000
E100
7FC0
3F00
ENDCHAR

STARTCHAR eacute
ENCODING 233
SWIDTH 640 0
DWIDTH 12 0
BBX 11 15 1 0
BITMAP
03C0
0700
0E00
0000
0000
1F00
3FC0
71C0
E0E0
FFE0
DFE0
E000
E100
7FC0
3F00
ENDCHAR

STARTCHAR ecircumflex
ENCODING 234
SWIDTH 640 0
DWIDTH 12 0
BBX 11 14 1 0
BITMAP
0700
0F80
39C0
0000
1F00
3FC0
71C0
E0E0
FFE0
DFE0
E000
E100
7FC0
3F00
ENDCHAR

STARTCHAR edieresis
ENCODING 235
SWIDTH 640 0
DWIDTH 12 0
BBX 11 14 1 0
BITMAP
1980
3B80
1100
0000
1F00
3FC0
71C0
E0E0
FFE0
DFE0
E000
E100
7FC0
3F00
ENDCHAR

STARTCHAR igrave
ENCODING 236
SWIDTH 240 0
DWIDTH 5 0
BBX 5 16 0 0
BITMAP
F0
70
38
00
00
30
30
30
30
70
70
70
70
60
60
60
ENDCHAR

STARTCHAR iacute
ENCODING 237
SWIDTH 240 0
DWIDTH 5 0
BBX 5 15 1 0
BITMAP
78
70
E0
00
00
60
60
60
60
E0
E0
E0
C0
C0
C0
ENDCHAR

STARTCHAR icircumflex
ENCODING 238
SWIDTH 240 0
DWIDTH 5 0
BBX 8 14 -1 0
BITMAP
1C
3E
E7
00
18
18
18
18
38
38
38
30
30
30
ENDCHAR

STARTCHAR idieresis
ENCODING 239
SWIDTH 240 0
DWIDTH 5 0
BBX 7 14 0 0
BITMAP
66
EE
44
00
30
30
30
30
70
70
70
60
60
60
ENDCHAR

STARTCHAR eth
ENCODING 240
SWIDTH 640 0
DWIDTH 12 0
BBX 10 14 1 0
BITMAP
1C80
0F80
1F00
0380
1F80
7FC0
71C0
E0C0
C0C0
C0C0
C1C0
E380
7F80
3E00
ENDCHAR

STARTCHAR ntilde
ENCODING 241
SWIDTH 600 0
DWIDTH 11 0
BBX 10 15 0 0
BITMAP
1E00
1FC0
0380
0000
0000
7780
7FC0
79C0
71C0
61C0
6180
6180
E180
E180
E380
ENDCHAR

STARTCHAR ograve
ENCODING 242
SWIDTH 640 0
DWIDTH 12 0
BBX 10 15 1 0
BITMAP
1E00
0E00
0700
0000
0000
1F00
7F80
71C0
E0C0
C0C0
C0C0
C1C0
E380
7F80
3E00
ENDCHAR

STARTCHAR oacute
ENCODING 243
SWIDTH 640 0
DWIDTH 12 0
BBX 10 15 1 0
BITMAP
03C0
0700
0E00
0000
0000
1F00
7F80
71C0
E0C0
C0C0
C0C0
C1C0
E380
7F80
3E00
ENDCHAR

STARTCHAR ocircumflex
ENCODING 244
SWIDTH 640 0
DWIDTH 12 0
BBX 10 15 1 0
BITMAP
0700
0F80
1DC0
39C0
0000
1F00
7F80
71C0
E0C0
C0C0
C0C0
C1C0
E380
7F80
3E00
ENDCHAR

STARTCHAR otilde
ENCODING 245
SWIDTH 640 0
DWIDTH 12 0
BBX 10 15 1 0
BITMAP
1E00
1FC0
0380
0000
0000
1F00
7F80
71C0
E0C0
C0C0
C0C0
C1C0
E380
7F80
3E00
ENDCHAR

STARTCHAR odieresis
ENCODING 246
SWIDTH 640 0
DWIDTH 12 0
BBX 10 14 1 0
BITMAP
1980
3B80
1100
0000
1F00
7F80
71C0
E0C0
C0C0
C0C0
C1C0
E380
7F80
3E00
ENDCHAR

STARTCHAR divide
ENCODING 247
SWIDTH 600 0
DWIDTH 10 0
BBX 10 11 0 1
BITMAP
0E00
0E00
0E00
0000
0000
FFC0
FFC0
0000
1C00
1C00
1C00
ENDCHAR

STARTCHAR oslash
ENCODING 248
SWIDTH 660 0
DWIDTH 13 0
BBX 12 12 0 -1
BITMAP
0030
0FE0
3FC0
39E0
7360
6660
6660
6CE0
79C0
3FC0
FF00
4000
ENDCHAR

STARTCHAR ugrave
ENCODING 249
SWIDTH 600 0
DWIDTH 11 0
BBX 9 15 1 0
BITMAP
1E00
0E00
0700
0000
0000
6180
E180
E380
E380
C380
C380
C300
E700
FE00
7C00
ENDCHAR

STARTCHAR uacute
ENCODING 250
SWIDTH 600 0
DWIDTH 11 0
BBX 10 15 1 0
BITMAP
03C0
0700
0E00
0000
0000
6180
E180
E380
E380
C380
C380
C300
E700
FE00
7C00
ENDCHAR

STARTCHAR ucircumflex
ENCODING 251
SWIDTH 600 0
DWIDTH 11 0
BBX 10 14 1 0
BITMAP
0700
0F80
39C0
0000
6180
E180
E380
E380
C380
C380
C300
E700
FE00
7C00
ENDCHAR

STARTCHAR udieresis
ENCODING 252
SWIDTH 600 0
DWIDTH 11 0
BBX 9 14 1 0
BITMAP
1980
3B80
1100
0000
6180
E180
E380
E380
C380
C380
C300
E700
FE00
7C00
ENDCHAR

STARTCHAR yacute
ENCODING 253
SWIDTH 580 0
DWIDTH 11 0
BBX 10 19 1 -4
BITMAP
0780
0700
0E00
0000
0000
E1C0
E1C0
E380
7380
7700
7700
3E00
1E00
1C00
1C00
3800
3000
7000
E000
ENDCHAR

STARTCHAR thorn
ENCODING 254
SWIDTH 660 0
DWIDTH 13 0
BBX 11 18 0 -4
BITMAP
3000
3000
3000
3000
7780
7FC0
78E0
7060
6060
6060
60E0
F1C0
FFC0
EF00
E000
C000
C000
C000
ENDCHAR

STARTCHAR ydieresis
ENCODING 255
SWIDTH 580 0
DWIDTH 11 0
BBX 11 18 0 -4
BITMAP
0CC0
1DC0
0880
0000
E0E0
60C0
71C0
7380
3300
3B00
3E00
1E00
1C00
1C00
3800
3000
7000
E000
ENDCHAR
ENDFONT
